<?xml version="1.0" standalone="no"?>
<!DOCTYPE svg PUBLIC "-//W3C//DTD SVG 20010904//EN"
 "http://www.w3.org/TR/2001/REC-SVG-20010904/DTD/svg10.dtd">
<svg version="1.0" xmlns="http://www.w3.org/2000/svg"
 width="180.000000pt" height="180.000000pt" viewBox="0 0 180.000000 180.000000"
 preserveAspectRatio="xMidYMid meet">
<metadata>
Created by potrace 1.11, written by Peter Selinger 2001-2013
</metadata>
<g transform="translate(0.000000,180.000000) scale(0.100000,-0.100000)"
fill="#000000" stroke="none">
<path d="M937 1790 c-20 -4 -48 -17 -61 -29 -23 -21 -28 -22 -80 -11 -57 12
-155 15 -191 7 -11 -3 -40 -8 -65 -12 -68 -11 -241 -106 -254 -140 -3 -8 -23
-13 -53 -13 -94 -1 -212 -79 -226 -150 -7 -37 1 -92 14 -92 5 0 9 -9 9 -19 0
-29 63 -73 123 -87 4 -1 17 -2 30 -3 14 -1 49 -26 88 -64 35 -35 94 -85 132
-111 37 -26 67 -55 67 -63 0 -18 -29 -58 -89 -124 -22 -24 -48 -57 -57 -74 -9
-16 -36 -46 -60 -65 -85 -67 -105 -113 -78 -179 12 -30 25 -43 55 -55 44 -18
75 -20 83 -7 3 5 18 12 33 16 27 6 83 57 83 75 0 5 6 15 13 22 6 7 32 53 56
101 46 92 57 105 72 90 15 -15 42 -124 44 -175 1 -29 8 -55 18 -66 22 -24 21
-32 0 -32 -10 -1 -30 -11 -45 -23 -86 -71 -37 -182 113 -260 45 -23 79 -61 79
-88 0 -20 51 -89 84 -114 19 -15 50 -30 68 -33 57 -12 138 -5 156 12 10 9 26
24 38 34 12 9 28 31 37 49 24 45 29 46 73 13 21 -16 47 -30 57 -30 10 0 26 -4
35 -9 23 -12 128 4 168 25 18 10 37 27 43 38 17 34 20 106 5 121 -8 7 -14 18
-14 24 0 6 -5 11 -10 11 -18 0 -48 60 -42 83 3 12 20 38 37 58 30 33 32 40 25
82 -7 49 -46 113 -91 152 -25 20 -36 23 -89 18 l-60 -5 0 41 c0 35 -4 43 -30
56 -16 9 -30 20 -30 25 0 9 -14 28 -45 64 -5 6 -23 29 -40 51 -16 22 -39 47
-50 57 -20 16 -20 16 5 22 89 21 280 26 452 13 55 -5 89 -4 93 3 3 5 14 10 23
10 16 0 101 74 103 89 8 63 -6 86 -60 101 -49 13 -164 16 -256 6 -38 -4 -108
-9 -155 -11 -47 -2 -109 -9 -139 -14 -29 -6 -67 -11 -83 -11 l-28 0 17 28 c10
15 20 29 24 32 15 12 27 101 23 165 l-5 70 46 47 c39 40 45 52 45 89 0 112
-142 197 -283 169z m184 -1410 c20 -11 27 -64 10 -74 -10 -6 -67 20 -93 42
-37 31 33 58 83 32z"/>
</g>
</svg>
